<svg width="128" height="128" viewBox="0 0 128 128" fill="none" xmlns="http://www.w3.org/2000/svg">
<mask id="path-1-outside-1_1_2" maskUnits="userSpaceOnUse" x="4.56152" y="9.15527" width="119" height="119" fill="black">
<rect fill="white" x="4.56152" y="9.15527" width="119" height="119"/>
<path d="M52.5615 12.1553C56.1614 12.1553 57.8117 12.1551 59.0117 13.2051C60.0615 14.4051 60.0615 16.0555 60.0615 19.6553V23.4053C60.0617 25.5052 61.7116 27.1553 63.8115 27.1553C65.9114 27.1552 67.5614 25.5051 67.5615 23.4053V19.6553C67.5615 16.0553 67.5614 14.4051 68.6113 13.2051C69.8113 12.1551 71.4615 12.1553 75.0615 12.1553H97.5615C101.161 12.1553 102.812 12.1551 104.012 13.2051C104.93 14.2551 105.045 15.6497 105.06 18.3936L105.063 20.917C105.078 23.6606 105.193 25.0555 106.111 26.1055C107.161 27.0241 108.556 27.139 111.3 27.1533L113.823 27.1572C116.567 27.1716 117.962 27.2864 119.012 28.2051C120.062 29.4051 120.062 31.0555 120.062 34.6553V117.155C120.062 120.755 120.062 122.405 119.012 123.605C117.812 124.655 116.161 124.655 112.562 124.655H99.5596L99.5576 124.654V124.655H94.0576C91.4176 124.655 90.2072 124.655 89.3271 123.885C88.5574 123.005 88.5576 121.795 88.5576 119.155V64.1553C88.5576 61.5153 88.5571 60.3048 87.7871 59.4248C86.9072 58.6551 85.6972 58.6553 83.0576 58.6553H77.5576C74.9176 58.6553 73.7071 58.6548 72.8271 59.4248C72.0572 60.3048 72.0576 61.5153 72.0576 64.1553V119.155C72.0576 121.795 72.0571 123.005 71.2871 123.885C70.8668 124.252 70.3713 124.443 69.6807 124.543C69.6358 124.655 69.2668 124.655 67.5615 124.655H60.0615C58.6477 124.655 58.3064 124.655 58.3398 124.592C57.43 124.51 56.8255 124.321 56.3271 123.885C55.5574 123.005 55.5576 121.795 55.5576 119.155V64.1553C55.5576 61.5153 55.5571 60.3048 54.7871 59.4248C53.9072 58.6551 52.6972 58.6553 50.0576 58.6553H44.5576C41.9176 58.6553 40.7071 58.6548 39.8271 59.4248C39.0572 60.3048 39.0576 61.5153 39.0576 64.1553V119.155C39.0576 121.795 39.0571 123.005 38.2871 123.885C37.4071 124.655 36.1974 124.655 33.5576 124.655H15.0615C11.4617 124.655 9.81131 124.655 8.61133 123.605C7.56135 122.405 7.56152 120.755 7.56152 117.155V34.6553C7.56152 31.0553 7.56137 29.4051 8.61133 28.2051C9.66132 27.2863 11.0559 27.1716 13.7998 27.1572L16.3232 27.1533C19.0669 27.139 20.4618 27.0242 21.5117 26.1055C22.4304 25.0555 22.5452 23.6606 22.5596 20.917L22.5635 18.3936C22.5778 15.6496 22.6926 14.2551 23.6113 13.2051C24.8113 12.1551 26.4615 12.1553 30.0615 12.1553H52.5615Z"/>
</mask>
<path d="M52.5615 12.1553C56.1614 12.1553 57.8117 12.1551 59.0117 13.2051C60.0615 14.4051 60.0615 16.0555 60.0615 19.6553V23.4053C60.0617 25.5052 61.7116 27.1553 63.8115 27.1553C65.9114 27.1552 67.5614 25.5051 67.5615 23.4053V19.6553C67.5615 16.0553 67.5614 14.4051 68.6113 13.2051C69.8113 12.1551 71.4615 12.1553 75.0615 12.1553H97.5615C101.161 12.1553 102.812 12.1551 104.012 13.2051C104.93 14.2551 105.045 15.6497 105.06 18.3936L105.063 20.917C105.078 23.6606 105.193 25.0555 106.111 26.1055C107.161 27.0241 108.556 27.139 111.3 27.1533L113.823 27.1572C116.567 27.1716 117.962 27.2864 119.012 28.2051C120.062 29.4051 120.062 31.0555 120.062 34.6553V117.155C120.062 120.755 120.062 122.405 119.012 123.605C117.812 124.655 116.161 124.655 112.562 124.655H99.5596L99.5576 124.654V124.655H94.0576C91.4176 124.655 90.2072 124.655 89.3271 123.885C88.5574 123.005 88.5576 121.795 88.5576 119.155V64.1553C88.5576 61.5153 88.5571 60.3048 87.7871 59.4248C86.9072 58.6551 85.6972 58.6553 83.0576 58.6553H77.5576C74.9176 58.6553 73.7071 58.6548 72.8271 59.4248C72.0572 60.3048 72.0576 61.5153 72.0576 64.1553V119.155C72.0576 121.795 72.0571 123.005 71.2871 123.885C70.8668 124.252 70.3713 124.443 69.6807 124.543C69.6358 124.655 69.2668 124.655 67.5615 124.655H60.0615C58.6477 124.655 58.3064 124.655 58.3398 124.592C57.43 124.51 56.8255 124.321 56.3271 123.885C55.5574 123.005 55.5576 121.795 55.5576 119.155V64.1553C55.5576 61.5153 55.5571 60.3048 54.7871 59.4248C53.9072 58.6551 52.6972 58.6553 50.0576 58.6553H44.5576C41.9176 58.6553 40.7071 58.6548 39.8271 59.4248C39.0572 60.3048 39.0576 61.5153 39.0576 64.1553V119.155C39.0576 121.795 39.0571 123.005 38.2871 123.885C37.4071 124.655 36.1974 124.655 33.5576 124.655H15.0615C11.4617 124.655 9.81131 124.655 8.61133 123.605C7.56135 122.405 7.56152 120.755 7.56152 117.155V34.6553C7.56152 31.0553 7.56137 29.4051 8.61133 28.2051C9.66132 27.2863 11.0559 27.1716 13.7998 27.1572L16.3232 27.1533C19.0669 27.139 20.4618 27.0242 21.5117 26.1055C22.4304 25.0555 22.5452 23.6606 22.5596 20.917L22.5635 18.3936C22.5778 15.6496 22.6926 14.2551 23.6113 13.2051C24.8113 12.1551 26.4615 12.1553 30.0615 12.1553H52.5615Z" fill="#000638"/>
<path d="M52.5615 12.1553V9.15527V12.1553ZM59.0117 13.2051L61.2696 11.2297L61.1378 11.0791L60.9872 10.9474L59.0117 13.2051ZM60.0615 23.4053H57.0615V23.4055L60.0615 23.4053ZM63.8115 27.1553V30.1553H63.8116L63.8115 27.1553ZM67.5615 23.4053L70.5615 23.4055V23.4053H67.5615ZM68.6113 13.2051L66.6358 10.9474L66.4853 11.0791L66.3536 11.2296L68.6113 13.2051ZM97.5615 12.1553V9.15527V12.1553ZM104.012 13.2051L106.27 11.2297L106.138 11.0791L105.987 10.9474L104.012 13.2051ZM105.06 18.3936L108.06 18.3889L108.06 18.3779L105.06 18.3936ZM105.063 20.917L102.063 20.9216L102.064 20.9327L105.063 20.917ZM106.111 26.1055L103.854 28.081L103.985 28.2316L104.136 28.3634L106.111 26.1055ZM111.3 27.1533L111.284 30.1533L111.295 30.1533L111.3 27.1533ZM113.823 27.1572L113.839 24.1572L113.828 24.1572L113.823 27.1572ZM119.012 28.2051L121.27 26.2297L121.138 26.0791L120.987 25.9474L119.012 28.2051ZM120.062 117.155H123.062H120.062ZM119.012 123.605L120.987 125.863L121.138 125.732L121.269 125.581L119.012 123.605ZM112.562 124.655V127.655V124.655ZM99.5596 124.655L98.2179 127.339L98.8514 127.655H99.5596V124.655ZM99.5576 124.654L100.899 121.971L96.5576 119.8V124.654H99.5576ZM99.5576 124.655V127.655H102.558V124.655H99.5576ZM89.3271 123.885L87.0691 125.86L87.2009 126.011L87.3516 126.142L89.3271 123.885ZM88.5576 119.155H85.5576H88.5576ZM87.7871 59.4248L90.0448 57.4493L89.913 57.2986L89.7623 57.1668L87.7871 59.4248ZM83.0576 58.6553V55.6553V58.6553ZM72.8271 59.4248L70.8516 57.1671L70.7011 57.2988L70.5694 57.4493L72.8271 59.4248ZM72.0576 119.155H75.0576H72.0576ZM71.2871 123.885L73.2625 126.143L73.4131 126.011L73.5448 125.86L71.2871 123.885ZM69.6807 124.543L69.2492 121.574L67.5405 121.822L66.8969 123.425L69.6807 124.543ZM67.5615 124.655V127.655V124.655ZM58.3398 124.592L60.9949 125.988L63.0889 122.008L58.6092 121.604L58.3398 124.592ZM56.3271 123.885L54.0691 125.86L54.2009 126.011L54.3516 126.142L56.3271 123.885ZM55.5576 119.155H52.5576H55.5576ZM54.7871 59.4248L57.0448 57.4493L56.913 57.2986L56.7623 57.1668L54.7871 59.4248ZM50.0576 58.6553V55.6553V58.6553ZM39.8271 59.4248L37.8516 57.1671L37.7011 57.2988L37.5694 57.4493L39.8271 59.4248ZM39.0576 119.155H42.0576H39.0576ZM38.2871 123.885L40.2625 126.143L40.4131 126.011L40.5448 125.86L38.2871 123.885ZM33.5576 124.655V127.655V124.655ZM8.61133 123.605L6.3536 125.581L6.48537 125.732L6.63598 125.863L8.61133 123.605ZM7.56152 117.155H4.56152H7.56152ZM8.61133 28.2051L6.63581 25.9474L6.48528 26.0791L6.35356 26.2296L8.61133 28.2051ZM13.7998 27.1572L13.7952 24.1572L13.7841 24.1573L13.7998 27.1572ZM16.3232 27.1533L16.3279 30.1533L16.3389 30.1533L16.3232 27.1533ZM21.5117 26.1055L23.4872 28.3632L23.6377 28.2315L23.7695 28.081L21.5117 26.1055ZM22.5596 20.917L25.5595 20.9327L25.5596 20.9216L22.5596 20.917ZM22.5635 18.3936L19.5635 18.3779L19.5635 18.3889L22.5635 18.3936ZM23.6113 13.2051L21.6358 10.9474L21.4853 11.0791L21.3536 11.2296L23.6113 13.2051ZM52.5615 12.1553V15.1553C54.4446 15.1553 55.5265 15.1612 56.3011 15.2616C56.9632 15.3473 57.0356 15.4623 57.0362 15.4628L59.0117 13.2051L60.9872 10.9474C59.7878 9.89785 58.4351 9.48792 57.0721 9.3113C55.8215 9.14926 54.2783 9.15527 52.5615 9.15527V12.1553ZM59.0117 13.2051L56.7538 15.1804C56.7544 15.181 56.8694 15.2536 56.9552 15.9158C57.0556 16.6904 57.0615 17.7723 57.0615 19.6553H60.0615H63.0615C63.0615 17.9385 63.0675 16.3953 62.9054 15.1447C62.7288 13.7817 62.3189 12.4291 61.2696 11.2297L59.0117 13.2051ZM60.0615 19.6553H57.0615V23.4053H60.0615H63.0615V19.6553H60.0615ZM60.0615 23.4053L57.0615 23.4055C57.0618 27.1619 60.0546 30.1553 63.8115 30.1553V27.1553V24.1553C63.5664 24.1553 63.3893 24.0653 63.2705 23.9464C63.1516 23.8275 63.0615 23.6504 63.0615 23.4051L60.0615 23.4053ZM63.8115 27.1553L63.8116 30.1553C67.5683 30.1551 70.5613 27.1619 70.5615 23.4055L67.5615 23.4053L64.5615 23.4051C64.5615 23.6503 64.4715 23.8274 64.3526 23.9464C64.2337 24.0653 64.0566 24.1553 63.8114 24.1553L63.8115 27.1553ZM67.5615 23.4053H70.5615V19.6553H67.5615H64.5615V23.4053H67.5615ZM67.5615 19.6553H70.5615C70.5615 17.7721 70.5675 16.6903 70.6678 15.9157C70.7536 15.2536 70.8686 15.1811 70.8691 15.1805L68.6113 13.2051L66.3536 11.2296C65.3041 12.429 64.8942 13.7816 64.7176 15.1447C64.5555 16.3952 64.5615 17.9385 64.5615 19.6553H67.5615ZM68.6113 13.2051L70.5868 15.4628C70.5874 15.4623 70.6599 15.3473 71.3219 15.2616C72.0965 15.1612 73.1783 15.1553 75.0615 15.1553V12.1553V9.15527C73.3447 9.15527 71.8015 9.14926 70.5509 9.3113C69.1879 9.48792 67.8352 9.89787 66.6358 10.9474L68.6113 13.2051ZM75.0615 12.1553V15.1553H97.5615V12.1553V9.15527H75.0615V12.1553ZM97.5615 12.1553V15.1553C99.4446 15.1553 100.527 15.1612 101.301 15.2616C101.963 15.3473 102.036 15.4623 102.036 15.4628L104.012 13.2051L105.987 10.9474C104.788 9.89786 103.435 9.48792 102.072 9.3113C100.822 9.14926 99.2783 9.15527 97.5615 9.15527V12.1553ZM104.012 13.2051L101.754 15.1804C101.762 15.1899 101.843 15.2482 101.92 15.6859C102.015 16.2226 102.052 17.0138 102.06 18.4092L105.06 18.3936L108.06 18.3779C108.047 15.9072 108.054 13.2698 106.27 11.2297L104.012 13.2051ZM105.06 18.3936L102.06 18.3982L102.063 20.9216L105.063 20.917L108.063 20.9123L108.06 18.3889L105.06 18.3936ZM105.063 20.917L102.064 20.9327C102.076 23.4028 102.068 26.0409 103.854 28.081L106.111 26.1055L108.369 24.13C108.361 24.1206 108.28 24.0625 108.203 23.6246C108.108 23.0879 108.071 22.2968 108.063 20.9013L105.063 20.917ZM106.111 26.1055L104.136 28.3634C106.176 30.1481 108.814 30.1404 111.284 30.1533L111.3 27.1533L111.315 24.1534C109.92 24.1461 109.129 24.109 108.592 24.0142C108.154 23.9369 108.096 23.8559 108.087 23.8476L106.111 26.1055ZM111.3 27.1533L111.295 30.1533L113.819 30.1572L113.823 27.1572L113.828 24.1572L111.304 24.1533L111.3 27.1533ZM113.823 27.1572L113.808 30.1572C115.203 30.1645 115.994 30.2015 116.531 30.2963C116.969 30.3736 117.027 30.4546 117.036 30.4628L119.012 28.2051L120.987 25.9474C118.947 24.1622 116.309 24.1702 113.839 24.1573L113.823 27.1572ZM119.012 28.2051L116.754 30.1804C116.754 30.181 116.869 30.2536 116.955 30.9158C117.056 31.6904 117.062 32.7723 117.062 34.6553H120.062H123.062C123.062 32.9385 123.067 31.3953 122.905 30.1447C122.729 28.7817 122.319 27.4291 121.27 26.2297L119.012 28.2051ZM120.062 34.6553H117.062V117.155H120.062H123.062V34.6553H120.062ZM120.062 117.155H117.062C117.062 119.038 117.056 120.12 116.955 120.895C116.869 121.557 116.754 121.629 116.754 121.63L119.012 123.605L121.269 125.581C122.319 124.382 122.729 123.029 122.905 121.666C123.068 120.415 123.062 118.872 123.062 117.155H120.062ZM119.012 123.605L117.036 121.348C117.036 121.348 116.963 121.463 116.301 121.549C115.526 121.649 114.445 121.655 112.562 121.655V124.655V127.655C114.278 127.655 115.822 127.661 117.072 127.499C118.435 127.323 119.788 126.913 120.987 125.863L119.012 123.605ZM112.562 124.655V121.655H99.5596V124.655V127.655H112.562V124.655ZM99.5596 124.655L100.901 121.972L100.899 121.971L99.5576 124.654L98.216 127.338L98.2179 127.339L99.5596 124.655ZM99.5576 124.654H96.5576V124.655H99.5576H102.558V124.654H99.5576ZM99.5576 124.655V121.655H94.0576V124.655V127.655H99.5576V124.655ZM94.0576 124.655V121.655C92.6548 121.655 91.9229 121.649 91.4185 121.584C91.0264 121.533 91.1436 121.488 91.3027 121.627L89.3271 123.885L87.3516 126.142C88.3907 127.052 89.5531 127.392 90.6463 127.534C91.6271 127.661 92.8204 127.655 94.0576 127.655V124.655ZM89.3271 123.885L91.5852 121.91C91.7247 122.069 91.6797 122.187 91.6289 121.794C91.5635 121.29 91.5576 120.558 91.5576 119.155H88.5576H85.5576C85.5576 120.392 85.5516 121.585 85.6786 122.565C85.8202 123.658 86.1599 124.821 87.0691 125.86L89.3271 123.885ZM88.5576 119.155H91.5576V64.1553H88.5576H85.5576V119.155H88.5576ZM88.5576 64.1553H91.5576C91.5576 62.918 91.5635 61.7248 91.4362 60.7439C91.2943 59.6508 90.9541 58.4884 90.0448 57.4493L87.7871 59.4248L85.5294 61.4003C85.3902 61.2412 85.4352 61.1241 85.4861 61.5161C85.5515 62.0205 85.5576 62.7525 85.5576 64.1553H88.5576ZM87.7871 59.4248L89.7623 57.1668C88.7229 56.2576 87.5604 55.9178 86.4676 55.7763C85.4872 55.6493 84.2942 55.6553 83.0576 55.6553V58.6553V61.6553C84.4606 61.6553 85.1923 61.6612 85.6968 61.7265C86.0889 61.7773 85.9714 61.8223 85.812 61.6829L87.7871 59.4248ZM83.0576 58.6553V55.6553H77.5576V58.6553V61.6553H83.0576V58.6553ZM77.5576 58.6553V55.6553C76.321 55.6553 75.1277 55.6492 74.1472 55.7761C73.0543 55.9176 71.8913 56.2573 70.8516 57.1671L72.8271 59.4248L74.8027 61.6825C74.643 61.8223 74.5252 61.7773 74.9175 61.7265C75.4223 61.6611 76.1543 61.6553 77.5576 61.6553V58.6553ZM72.8271 59.4248L70.5694 57.4493C69.6597 58.489 69.32 59.652 69.1785 60.7449C69.0515 61.7254 69.0576 62.9186 69.0576 64.1553H72.0576H75.0576C75.0576 62.752 75.0635 62.02 75.1288 61.5152C75.1796 61.1229 75.2246 61.2406 75.0849 61.4003L72.8271 59.4248ZM72.0576 64.1553H69.0576V119.155H72.0576H75.0576V64.1553H72.0576ZM72.0576 119.155H69.0576C69.0576 120.558 69.0515 121.29 68.9861 121.794C68.9352 122.185 68.8903 122.068 69.0294 121.909L71.2871 123.885L73.5448 125.86C74.4538 124.821 74.7942 123.659 74.9361 122.566C75.0635 121.585 75.0576 120.392 75.0576 119.155H72.0576ZM71.2871 123.885L69.3117 121.627C69.3317 121.609 69.3591 121.589 69.3916 121.569C69.4238 121.549 69.4494 121.537 69.4625 121.532C69.4743 121.527 69.4674 121.531 69.4336 121.54C69.3989 121.548 69.3402 121.561 69.2492 121.574L69.6807 124.543L70.1121 127.512C71.1612 127.359 72.2687 127.012 73.2625 126.143L71.2871 123.885ZM69.6807 124.543L66.8969 123.425C67.184 122.71 67.6829 122.261 68.0954 122.012C68.4568 121.794 68.7723 121.713 68.8888 121.686C69.1127 121.634 69.2497 121.638 69.1077 121.644C68.8835 121.654 68.4561 121.655 67.5615 121.655V124.655V127.655C68.3722 127.655 68.9819 127.656 69.3798 127.638C69.5488 127.63 69.8931 127.613 70.2521 127.529C70.4333 127.487 71.8557 127.177 72.4645 125.661L69.6807 124.543ZM67.5615 124.655V121.655H60.0615V124.655V127.655H67.5615V124.655ZM60.0615 124.655V121.655C59.325 121.655 58.9489 121.655 58.75 121.649C58.6062 121.644 58.7315 121.641 58.9299 121.676C58.9341 121.677 59.479 121.753 60.0401 122.137C60.3725 122.364 60.9613 122.872 61.2206 123.772C61.4941 124.72 61.2385 125.525 60.9949 125.988L58.3398 124.592L55.6848 123.195C55.437 123.666 55.1801 124.479 55.4556 125.434C55.717 126.341 56.311 126.855 56.6524 127.089C57.2313 127.485 57.8084 127.571 57.862 127.581C58.1591 127.634 58.4518 127.642 58.5659 127.646C58.8828 127.656 59.3843 127.655 60.0615 127.655V124.655ZM58.3398 124.592L58.6092 121.604C58.4524 121.59 58.3417 121.574 58.2643 121.559C58.188 121.545 58.1547 121.534 58.1509 121.533C58.1494 121.532 58.1725 121.54 58.209 121.561C58.2465 121.582 58.2791 121.606 58.3027 121.627L56.3271 123.885L54.3516 126.142C55.5359 127.179 56.8768 127.472 58.0705 127.58L58.3398 124.592ZM56.3271 123.885L58.5852 121.91C58.7247 122.069 58.6797 122.187 58.6289 121.794C58.5635 121.29 58.5576 120.558 58.5576 119.155H55.5576H52.5576C52.5576 120.392 52.5516 121.585 52.6786 122.565C52.8202 123.658 53.1599 124.821 54.0691 125.86L56.3271 123.885ZM55.5576 119.155H58.5576V64.1553H55.5576H52.5576V119.155H55.5576ZM55.5576 64.1553H58.5576C58.5576 62.918 58.5635 61.7248 58.4362 60.7439C58.2943 59.6508 57.9541 58.4884 57.0448 57.4493L54.7871 59.4248L52.5294 61.4003C52.3902 61.2412 52.4352 61.1241 52.4861 61.5161C52.5515 62.0205 52.5576 62.7525 52.5576 64.1553H55.5576ZM54.7871 59.4248L56.7623 57.1668C55.7229 56.2576 54.5604 55.9178 53.4676 55.7763C52.4872 55.6493 51.2942 55.6553 50.0576 55.6553V58.6553V61.6553C51.4606 61.6553 52.1923 61.6612 52.6968 61.7265C53.0889 61.7773 52.9714 61.8223 52.812 61.6829L54.7871 59.4248ZM50.0576 58.6553V55.6553H44.5576V58.6553V61.6553H50.0576V58.6553ZM44.5576 58.6553V55.6553C43.321 55.6553 42.1277 55.6492 41.1472 55.7761C40.0543 55.9176 38.8913 56.2573 37.8516 57.1671L39.8271 59.4248L41.8027 61.6825C41.643 61.8223 41.5252 61.7773 41.9175 61.7265C42.4223 61.6611 43.1543 61.6553 44.5576 61.6553V58.6553ZM39.8271 59.4248L37.5694 57.4493C36.6597 58.489 36.32 59.652 36.1785 60.7449C36.0515 61.7254 36.0576 62.9186 36.0576 64.1553H39.0576H42.0576C42.0576 62.7519 42.0635 62.02 42.1288 61.5152C42.1796 61.1229 42.2246 61.2406 42.0849 61.4003L39.8271 59.4248ZM39.0576 64.1553H36.0576V119.155H39.0576H42.0576V64.1553H39.0576ZM39.0576 119.155H36.0576C36.0576 120.558 36.0515 121.29 35.9861 121.794C35.9352 122.185 35.8903 122.068 36.0294 121.909L38.2871 123.885L40.5448 125.86C41.4538 124.821 41.7942 123.659 41.9361 122.566C42.0635 121.585 42.0576 120.392 42.0576 119.155H39.0576ZM38.2871 123.885L36.3117 121.627C36.4705 121.488 36.5876 121.533 36.1961 121.584C35.692 121.649 34.9603 121.655 33.5576 121.655V124.655V127.655C34.7948 127.655 35.9878 127.661 36.9686 127.534C38.0618 127.392 39.2237 127.051 40.2625 126.143L38.2871 123.885ZM33.5576 124.655V121.655H15.0615V124.655V127.655H33.5576V124.655ZM15.0615 124.655V121.655C13.1785 121.655 12.0966 121.649 11.322 121.549C10.6599 121.463 10.5873 121.348 10.5867 121.348L8.61133 123.605L6.63598 125.863C7.83535 126.913 9.18795 127.323 10.5509 127.499C11.8015 127.661 13.3447 127.655 15.0615 127.655V124.655ZM8.61133 123.605L10.8691 121.63C10.8686 121.629 10.7536 121.557 10.6678 120.895C10.5674 120.12 10.5615 119.038 10.5615 117.155H7.56152H4.56152C4.56152 118.872 4.55551 120.415 4.71756 121.666C4.89417 123.029 5.3041 124.382 6.3536 125.581L8.61133 123.605ZM7.56152 117.155H10.5615V34.6553H7.56152H4.56152V117.155H7.56152ZM7.56152 34.6553H10.5615C10.5615 32.7721 10.5675 31.6903 10.6678 30.9157C10.7536 30.2536 10.8686 30.1811 10.8691 30.1806L8.61133 28.2051L6.35356 26.2296C5.30413 27.429 4.89419 28.7816 4.71757 30.1447C4.55552 31.3952 4.56152 32.9385 4.56152 34.6553H7.56152ZM8.61133 28.2051L10.5868 30.4628C10.5963 30.4545 10.6544 30.3736 11.0921 30.2963C11.6288 30.2015 12.4198 30.1645 13.8155 30.1572L13.7998 27.1572L13.7841 24.1573C11.3137 24.1702 8.67598 24.1622 6.63581 25.9474L8.61133 28.2051ZM13.7998 27.1572L13.8044 30.1572L16.3279 30.1533L16.3232 27.1533L16.3186 24.1533L13.7952 24.1572L13.7998 27.1572ZM16.3232 27.1533L16.3389 30.1533C18.8092 30.1403 21.4471 30.1483 23.4872 28.3632L21.5117 26.1055L19.5362 23.8477C19.5268 23.8559 19.4687 23.9369 19.0309 24.0142C18.4941 24.109 17.703 24.1461 16.3075 24.1534L16.3232 27.1533ZM21.5117 26.1055L23.7695 28.081C25.5546 26.0409 25.5466 23.4029 25.5595 20.9327L22.5596 20.917L19.5596 20.9013C19.5523 22.2968 19.5153 23.0879 19.4205 23.6246C19.3432 24.0625 19.2622 24.1206 19.254 24.13L21.5117 26.1055ZM22.5596 20.917L25.5596 20.9216L25.5635 18.3982L22.5635 18.3936L19.5635 18.3889L19.5596 20.9123L22.5596 20.917ZM22.5635 18.3936L25.5634 18.4092C25.5707 17.0136 25.6078 16.2225 25.7025 15.6859C25.7798 15.2482 25.8608 15.1901 25.8691 15.1805L23.6113 13.2051L21.3536 11.2296C19.5685 13.2698 19.5764 15.9073 19.5635 18.3779L22.5635 18.3936ZM23.6113 13.2051L25.5868 15.4628C25.5874 15.4623 25.6599 15.3473 26.3219 15.2616C27.0965 15.1612 28.1783 15.1553 30.0615 15.1553V12.1553V9.15527C28.3447 9.15527 26.8015 9.14926 25.5509 9.3113C24.1879 9.48792 22.8352 9.89787 21.6358 10.9474L23.6113 13.2051ZM30.0615 12.1553V15.1553H52.5615V12.1553V9.15527H30.0615V12.1553Z" fill="white" mask="url(#path-1-outside-1_1_2)"/>
<path d="M105.061 19.655C105.061 23.255 105.061 24.905 106.111 26.105C107.311 27.155 108.961 27.155 112.561 27.155C116.161 27.155 117.811 27.155 119.011 28.205C120.061 29.405 120.061 31.055 120.061 34.655V117.155C120.061 120.755 120.061 122.405 119.011 123.605C117.811 124.655 116.161 124.655 112.561 124.655H105.061C101.461 124.655 99.8114 124.655 98.6114 123.605C97.5614 122.405 97.5614 120.755 97.5614 117.155V42.155C97.5614 38.555 97.5614 36.905 96.5114 35.705C95.3114 34.655 93.6614 34.655 90.0614 34.655H82.5614C78.9614 34.655 73.3114 34.655 72.1114 35.705C71.0614 36.905 71.0614 38.555 71.0614 42.155V117.155C71.0614 120.755 71.0614 122.405 70.0114 123.605C68.8114 124.655 71.1614 124.655 67.5614 124.655H60.0614C56.4614 124.655 59.8114 124.655 58.6114 123.605C57.5614 122.405 57.5614 120.755 57.5614 117.155V42.155C57.5614 38.555 57.5614 36.905 56.5114 35.705C55.3114 34.655 48.6614 34.655 45.0614 34.655H37.5614C33.9614 34.655 32.3114 34.655 31.1114 35.705C30.0614 36.905 30.0614 38.555 30.0614 42.155V117.155C30.0614 120.755 30.0614 122.405 29.0114 123.605C27.8114 124.655 26.1614 124.655 22.5614 124.655H15.0614C11.4614 124.655 9.81137 124.655 8.61137 123.605C7.56137 122.405 7.56137 120.755 7.56137 117.155V34.655C7.56137 31.055 7.56137 29.405 8.61137 28.205C9.81137 27.155 11.4614 27.155 15.0614 27.155C18.6614 27.155 20.3114 27.155 21.5114 26.105C22.5614 24.905 22.5614 23.255 22.5614 19.655C22.5614 16.055 22.5614 14.405 23.6114 13.205C24.8114 12.155 26.4614 12.155 30.0614 12.155H52.5614C56.1614 12.155 57.8114 12.155 59.0114 13.205C60.0614 14.405 60.0614 16.055 60.0614 19.655V23.405C60.0614 25.505 61.7114 27.155 63.8114 27.155C65.9114 27.155 67.5614 25.505 67.5614 23.405V19.655C67.5614 16.055 67.5614 14.405 68.6114 13.205C69.8114 12.155 71.4614 12.155 75.0614 12.155H97.5614C101.161 12.155 102.811 12.155 104.011 13.205C105.061 14.405 105.061 16.055 105.061 19.655Z" fill="#E57200"/>
<path d="M99.5594 33.655C99.5594 36.775 99.5594 38.205 100.469 39.245C101.509 40.155 102.939 40.155 106.059 40.155C109.179 40.155 110.609 40.155 111.649 41.065C112.559 42.105 112.559 43.535 112.559 46.655V118.155C112.559 121.275 112.559 122.705 111.649 123.745C110.609 124.655 109.179 124.655 106.059 124.655H99.5594C96.4394 124.655 95.0094 124.655 93.9694 123.745C93.0594 122.705 93.0594 121.275 93.0594 118.155V53.155C93.0594 50.035 93.0594 48.605 92.1494 47.565C91.1094 46.655 89.6794 46.655 86.5594 46.655H80.0594C76.9394 46.655 73.5094 46.655 72.4694 47.565C71.5594 48.605 71.5594 50.035 71.5594 53.155V118.155C71.5594 121.275 71.5594 122.705 70.6494 123.745C69.6094 124.655 70.1794 124.655 67.0594 124.655H60.5594C57.4394 124.655 59.0094 124.655 57.9694 123.745C57.0594 122.705 57.0594 121.275 57.0594 118.155V53.155C57.0594 50.035 57.0594 48.605 56.1494 47.565C55.1094 46.655 50.6794 46.655 47.5594 46.655H41.0594C37.9394 46.655 36.5094 46.655 35.4694 47.565C34.5594 48.605 34.5594 50.035 34.5594 53.155V118.155C34.5594 121.275 34.5594 122.705 33.6494 123.745C32.6094 124.655 31.1794 124.655 28.0594 124.655H21.5594C18.4394 124.655 17.0094 124.655 15.9694 123.745C15.0594 122.705 15.0594 121.275 15.0594 118.155V46.655C15.0594 43.535 15.0594 42.105 15.9694 41.065C17.0094 40.155 18.4394 40.155 21.5594 40.155C24.6794 40.155 26.1094 40.155 27.1494 39.245C28.0594 38.205 28.0594 36.775 28.0594 33.655C28.0594 30.535 28.0594 29.105 28.9694 28.065C30.0094 27.155 31.4394 27.155 34.5594 27.155H54.0594C57.1794 27.155 58.6094 27.155 59.6494 28.065C60.5594 29.105 60.5594 30.535 60.5594 33.655V36.905C60.5594 38.725 61.9894 40.155 63.8094 40.155C65.6294 40.155 67.0594 38.725 67.0594 36.905V33.655C67.0594 30.535 67.0594 29.105 67.9694 28.065C69.0094 27.155 70.4394 27.155 73.5594 27.155H93.0594C96.1794 27.155 97.6094 27.155 98.6494 28.065C99.5594 29.105 99.5594 30.535 99.5594 33.655Z" fill="#FFA347"/>
<path d="M94.0575 47.655C94.0575 50.295 94.0575 51.505 94.8275 52.385C95.7075 53.155 96.9175 53.155 99.5575 53.155C102.197 53.155 103.407 53.155 104.287 53.925C105.057 54.805 105.057 56.015 105.057 58.655V119.155C105.057 121.795 105.057 123.005 104.287 123.885C103.407 124.655 102.197 124.655 99.5575 124.655H94.0575C91.4175 124.655 90.2075 124.655 89.3275 123.885C88.5575 123.005 88.5575 121.795 88.5575 119.155V64.155C88.5575 61.515 88.5575 60.305 87.7875 59.425C86.9075 58.655 85.6975 58.655 83.0575 58.655H77.5575C74.9175 58.655 73.7075 58.655 72.8275 59.425C72.0575 60.305 72.0575 61.515 72.0575 64.155V119.155C72.0575 121.795 72.0575 123.005 71.2875 123.885C70.4075 124.655 69.1975 124.655 66.5575 124.655H61.0575C58.4175 124.655 57.2075 124.655 56.3275 123.885C55.5575 123.005 55.5575 121.795 55.5575 119.155V64.155C55.5575 61.515 55.5575 60.305 54.7875 59.425C53.9075 58.655 52.6975 58.655 50.0575 58.655H44.5575C41.9175 58.655 40.7075 58.655 39.8275 59.425C39.0575 60.305 39.0575 61.515 39.0575 64.155V119.155C39.0575 121.795 39.0575 123.005 38.2875 123.885C37.4075 124.655 36.1975 124.655 33.5575 124.655H28.0575C25.4175 124.655 24.2075 124.655 23.3275 123.885C22.5575 123.005 22.5575 121.795 22.5575 119.155V58.655C22.5575 56.015 22.5575 54.805 23.3275 53.925C24.2075 53.155 25.4175 53.155 28.0575 53.155C30.6975 53.155 31.9075 53.155 32.7875 52.385C33.5575 51.505 33.5575 50.295 33.5575 47.655C33.5575 45.015 33.5575 43.805 34.3275 42.925C35.2075 42.155 36.4175 42.155 39.0575 42.155H55.5575C58.1975 42.155 59.4075 42.155 60.2875 42.925C61.0575 43.805 61.0575 45.015 61.0575 47.655V50.405C61.0575 51.945 62.2675 53.155 63.8075 53.155C65.3475 53.155 66.5575 51.945 66.5575 50.405V47.655C66.5575 45.015 66.5575 43.805 67.3275 42.925C68.2075 42.155 69.4175 42.155 72.0575 42.155H88.5575C91.1975 42.155 92.4075 42.155 93.2875 42.925C94.0575 43.805 94.0575 45.015 94.0575 47.655Z" fill="#000638"/>
</svg>
