<svg width="128" height="128" viewBox="0 0 128 128" fill="none" xmlns="http://www.w3.org/2000/svg">
<mask id="path-1-outside-1_1_2" maskUnits="userSpaceOnUse" x="4.75" y="9.15527" width="119" height="119" fill="black">
<rect fill="white" x="4.75" y="9.15527" width="119" height="119"/>
<path d="M52.75 12.1553C56.3499 12.1553 58.0002 12.1551 59.2002 13.2051C60.25 14.4051 60.25 16.0555 60.25 19.6553V23.4053C60.2501 25.5052 61.9001 27.1553 64 27.1553C66.0998 27.1552 67.7499 25.5051 67.75 23.4053V19.6553C67.75 16.0553 67.7499 14.4051 68.7998 13.2051C69.9998 12.1551 71.65 12.1553 75.25 12.1553H97.75C101.35 12.1553 103 12.1551 104.2 13.2051C105.119 14.2551 105.234 15.6497 105.248 18.3936L105.252 20.917C105.266 23.6606 105.381 25.0555 106.3 26.1055C107.35 27.0241 108.745 27.139 111.488 27.1533L114.012 27.1572C116.755 27.1716 118.15 27.2864 119.2 28.2051C120.25 29.4051 120.25 31.0555 120.25 34.6553V117.155C120.25 120.755 120.25 122.405 119.2 123.605C118 124.655 116.35 124.655 112.75 124.655H99.748L99.7461 124.654V124.655H94.2461C91.6061 124.655 90.3956 124.655 89.5156 123.885C88.7459 123.005 88.7461 121.795 88.7461 119.155V64.1553C88.7461 61.5153 88.7456 60.3048 87.9756 59.4248C87.0956 58.6551 85.8857 58.6553 83.2461 58.6553H77.7461C75.1061 58.6553 73.8956 58.6548 73.0156 59.4248C72.2457 60.3048 72.2461 61.5153 72.2461 64.1553V119.155C72.2461 121.795 72.2456 123.005 71.4756 123.885C71.0553 124.252 70.5597 124.443 69.8691 124.543C69.8243 124.655 69.4552 124.655 67.75 124.655H60.25C58.8362 124.655 58.4949 124.655 58.5283 124.592C57.6185 124.51 57.014 124.321 56.5156 123.885C55.7459 123.005 55.7461 121.795 55.7461 119.155V64.1553C55.7461 61.5153 55.7456 60.3048 54.9756 59.4248C54.0956 58.6551 52.8857 58.6553 50.2461 58.6553H44.7461C42.1061 58.6553 40.8956 58.6548 40.0156 59.4248C39.2457 60.3048 39.2461 61.5153 39.2461 64.1553V119.155C39.2461 121.795 39.2456 123.005 38.4756 123.885C37.5956 124.655 36.3859 124.655 33.7461 124.655H15.25C11.6502 124.655 9.99979 124.655 8.7998 123.605C7.74983 122.405 7.75 120.755 7.75 117.155V34.6553C7.75 31.0553 7.74985 29.4051 8.7998 28.2051C9.8498 27.2863 11.2444 27.1716 13.9883 27.1572L16.5117 27.1533C19.2554 27.139 20.6502 27.0242 21.7002 26.1055C22.6189 25.0555 22.7337 23.6606 22.748 20.917L22.752 18.3936C22.7663 15.6496 22.8811 14.2551 23.7998 13.2051C24.9998 12.1551 26.65 12.1553 30.25 12.1553H52.75Z"/>
</mask>
<path d="M52.75 12.1553C56.3499 12.1553 58.0002 12.1551 59.2002 13.2051C60.25 14.4051 60.25 16.0555 60.25 19.6553V23.4053C60.2501 25.5052 61.9001 27.1553 64 27.1553C66.0998 27.1552 67.7499 25.5051 67.75 23.4053V19.6553C67.75 16.0553 67.7499 14.4051 68.7998 13.2051C69.9998 12.1551 71.65 12.1553 75.25 12.1553H97.75C101.35 12.1553 103 12.1551 104.2 13.2051C105.119 14.2551 105.234 15.6497 105.248 18.3936L105.252 20.917C105.266 23.6606 105.381 25.0555 106.3 26.1055C107.35 27.0241 108.745 27.139 111.488 27.1533L114.012 27.1572C116.755 27.1716 118.15 27.2864 119.2 28.2051C120.25 29.4051 120.25 31.0555 120.25 34.6553V117.155C120.25 120.755 120.25 122.405 119.2 123.605C118 124.655 116.35 124.655 112.75 124.655H99.748L99.7461 124.654V124.655H94.2461C91.6061 124.655 90.3956 124.655 89.5156 123.885C88.7459 123.005 88.7461 121.795 88.7461 119.155V64.1553C88.7461 61.5153 88.7456 60.3048 87.9756 59.4248C87.0956 58.6551 85.8857 58.6553 83.2461 58.6553H77.7461C75.1061 58.6553 73.8956 58.6548 73.0156 59.4248C72.2457 60.3048 72.2461 61.5153 72.2461 64.1553V119.155C72.2461 121.795 72.2456 123.005 71.4756 123.885C71.0553 124.252 70.5597 124.443 69.8691 124.543C69.8243 124.655 69.4552 124.655 67.75 124.655H60.25C58.8362 124.655 58.4949 124.655 58.5283 124.592C57.6185 124.51 57.014 124.321 56.5156 123.885C55.7459 123.005 55.7461 121.795 55.7461 119.155V64.1553C55.7461 61.5153 55.7456 60.3048 54.9756 59.4248C54.0956 58.6551 52.8857 58.6553 50.2461 58.6553H44.7461C42.1061 58.6553 40.8956 58.6548 40.0156 59.4248C39.2457 60.3048 39.2461 61.5153 39.2461 64.1553V119.155C39.2461 121.795 39.2456 123.005 38.4756 123.885C37.5956 124.655 36.3859 124.655 33.7461 124.655H15.25C11.6502 124.655 9.99979 124.655 8.7998 123.605C7.74983 122.405 7.75 120.755 7.75 117.155V34.6553C7.75 31.0553 7.74985 29.4051 8.7998 28.2051C9.8498 27.2863 11.2444 27.1716 13.9883 27.1572L16.5117 27.1533C19.2554 27.139 20.6502 27.0242 21.7002 26.1055C22.6189 25.0555 22.7337 23.6606 22.748 20.917L22.752 18.3936C22.7663 15.6496 22.8811 14.2551 23.7998 13.2051C24.9998 12.1551 26.65 12.1553 30.25 12.1553H52.75Z" fill="#000638"/>
<path d="M52.75 12.1553V9.15527V12.1553ZM59.2002 13.2051L61.4581 11.2297L61.3263 11.0791L61.1757 10.9474L59.2002 13.2051ZM60.25 23.4053H57.25V23.4055L60.25 23.4053ZM64 27.1553V30.1553H64.0001L64 27.1553ZM67.75 23.4053L70.75 23.4055V23.4053H67.75ZM68.7998 13.2051L66.8243 10.9474L66.6737 11.0791L66.542 11.2296L68.7998 13.2051ZM97.75 12.1553V9.15527V12.1553ZM104.2 13.2051L106.458 11.2297L106.326 11.0791L106.176 10.9474L104.2 13.2051ZM105.248 18.3936L108.248 18.3889L108.248 18.3779L105.248 18.3936ZM105.252 20.917L102.252 20.9216L102.252 20.9327L105.252 20.917ZM106.3 26.1055L104.042 28.081L104.174 28.2316L104.324 28.3634L106.3 26.1055ZM111.488 27.1533L111.473 30.1533L111.484 30.1533L111.488 27.1533ZM114.012 27.1572L114.027 24.1572L114.016 24.1572L114.012 27.1572ZM119.2 28.2051L121.458 26.2297L121.326 26.0791L121.176 25.9474L119.2 28.2051ZM120.25 117.155H123.25H120.25ZM119.2 123.605L121.176 125.863L121.326 125.732L121.458 125.581L119.2 123.605ZM112.75 124.655V127.655V124.655ZM99.748 124.655L98.4064 127.339L99.0398 127.655H99.748V124.655ZM99.7461 124.654L101.088 121.971L96.7461 119.8V124.654H99.7461ZM99.7461 124.655V127.655H102.746V124.655H99.7461ZM89.5156 123.885L87.2576 125.86L87.3894 126.011L87.5401 126.142L89.5156 123.885ZM88.7461 119.155H85.7461H88.7461ZM87.9756 59.4248L90.2333 57.4493L90.1015 57.2986L89.9507 57.1668L87.9756 59.4248ZM83.2461 58.6553V55.6553V58.6553ZM73.0156 59.4248L71.0401 57.1671L70.8896 57.2988L70.7579 57.4493L73.0156 59.4248ZM72.2461 119.155H75.2461H72.2461ZM71.4756 123.885L73.451 126.143L73.6016 126.011L73.7333 125.86L71.4756 123.885ZM69.8691 124.543L69.4377 121.574L67.729 121.822L67.0854 123.425L69.8691 124.543ZM67.75 124.655V127.655V124.655ZM58.5283 124.592L61.1834 125.988L63.2774 122.008L58.7977 121.604L58.5283 124.592ZM56.5156 123.885L54.2576 125.86L54.3894 126.011L54.5401 126.142L56.5156 123.885ZM55.7461 119.155H52.7461H55.7461ZM54.9756 59.4248L57.2333 57.4493L57.1015 57.2986L56.9507 57.1668L54.9756 59.4248ZM50.2461 58.6553V55.6553V58.6553ZM40.0156 59.4248L38.0401 57.1671L37.8896 57.2988L37.7579 57.4493L40.0156 59.4248ZM39.2461 119.155H42.2461H39.2461ZM38.4756 123.885L40.451 126.143L40.6016 126.011L40.7333 125.86L38.4756 123.885ZM33.7461 124.655V127.655V124.655ZM8.7998 123.605L6.54207 125.581L6.67385 125.732L6.82446 125.863L8.7998 123.605ZM7.75 117.155H4.75H7.75ZM8.7998 28.2051L6.82429 25.9474L6.67375 26.0791L6.54204 26.2296L8.7998 28.2051ZM13.9883 27.1572L13.9836 24.1572L13.9726 24.1573L13.9883 27.1572ZM16.5117 27.1533L16.5164 30.1533L16.5274 30.1533L16.5117 27.1533ZM21.7002 26.1055L23.6757 28.3632L23.8262 28.2315L23.9579 28.081L21.7002 26.1055ZM22.748 20.917L25.748 20.9327L25.748 20.9216L22.748 20.917ZM22.752 18.3936L19.752 18.3779L19.752 18.3889L22.752 18.3936ZM23.7998 13.2051L21.8243 10.9474L21.6737 11.0791L21.542 11.2296L23.7998 13.2051ZM52.75 12.1553V15.1553C54.6331 15.1553 55.715 15.1612 56.4896 15.2616C57.1516 15.3473 57.2241 15.4623 57.2247 15.4628L59.2002 13.2051L61.1757 10.9474C59.9763 9.89785 58.6236 9.48792 57.2606 9.3113C56.01 9.14926 54.4668 9.15527 52.75 9.15527V12.1553ZM59.2002 13.2051L56.9423 15.1804C56.9429 15.181 57.0578 15.2536 57.1437 15.9158C57.244 16.6904 57.25 17.7723 57.25 19.6553H60.25H63.25C63.25 17.9385 63.256 16.3953 63.0939 15.1447C62.9173 13.7817 62.5074 12.4291 61.4581 11.2297L59.2002 13.2051ZM60.25 19.6553H57.25V23.4053H60.25H63.25V19.6553H60.25ZM60.25 23.4053L57.25 23.4055C57.2502 27.1619 60.243 30.1553 64 30.1553V27.1553V24.1553C63.7548 24.1553 63.5778 24.0653 63.4589 23.9464C63.34 23.8275 63.25 23.6504 63.25 23.4051L60.25 23.4053ZM64 27.1553L64.0001 30.1553C67.7568 30.1551 70.7498 27.1619 70.75 23.4055L67.75 23.4053L64.75 23.4051C64.75 23.6503 64.66 23.8274 64.5411 23.9464C64.4221 24.0653 64.2451 24.1553 63.9999 24.1553L64 27.1553ZM67.75 23.4053H70.75V19.6553H67.75H64.75V23.4053H67.75ZM67.75 19.6553H70.75C70.75 17.7721 70.7559 16.6903 70.8563 15.9157C70.9421 15.2536 71.0571 15.1811 71.0576 15.1805L68.7998 13.2051L66.542 11.2296C65.4926 12.429 65.0827 13.7816 64.906 15.1447C64.744 16.3952 64.75 17.9385 64.75 19.6553H67.75ZM68.7998 13.2051L70.7753 15.4628C70.7759 15.4623 70.8484 15.3473 71.5104 15.2616C72.285 15.1612 73.3668 15.1553 75.25 15.1553V12.1553V9.15527C73.5332 9.15527 71.9899 9.14926 70.7394 9.3113C69.3763 9.48792 68.0237 9.89787 66.8243 10.9474L68.7998 13.2051ZM75.25 12.1553V15.1553H97.75V12.1553V9.15527H75.25V12.1553ZM97.75 12.1553V15.1553C99.6331 15.1553 100.715 15.1612 101.49 15.2616C102.152 15.3473 102.224 15.4623 102.225 15.4628L104.2 13.2051L106.176 10.9474C104.976 9.89786 103.624 9.48792 102.261 9.3113C101.01 9.14926 99.4668 9.15527 97.75 9.15527V12.1553ZM104.2 13.2051L101.942 15.1804C101.951 15.1899 102.032 15.2482 102.109 15.6859C102.204 16.2226 102.241 17.0138 102.248 18.4092L105.248 18.3936L108.248 18.3779C108.235 15.9072 108.243 13.2698 106.458 11.2297L104.2 13.2051ZM105.248 18.3936L102.248 18.3982L102.252 20.9216L105.252 20.917L108.252 20.9123L108.248 18.3889L105.248 18.3936ZM105.252 20.917L102.252 20.9327C102.265 23.4028 102.257 26.0409 104.042 28.081L106.3 26.1055L108.558 24.13C108.549 24.1206 108.468 24.0625 108.391 23.6246C108.296 23.0879 108.259 22.2968 108.252 20.9013L105.252 20.917ZM106.3 26.1055L104.324 28.3634C106.365 30.1481 109.002 30.1404 111.473 30.1533L111.488 27.1533L111.504 24.1534C110.109 24.1461 109.317 24.109 108.781 24.0142C108.343 23.9369 108.285 23.8559 108.275 23.8476L106.3 26.1055ZM111.488 27.1533L111.484 30.1533L114.007 30.1572L114.012 27.1572L114.016 24.1572L111.493 24.1533L111.488 27.1533ZM114.012 27.1572L113.996 30.1572C115.392 30.1645 116.183 30.2015 116.719 30.2963C117.157 30.3736 117.215 30.4546 117.225 30.4628L119.2 28.2051L121.176 25.9474C119.136 24.1622 116.498 24.1702 114.027 24.1573L114.012 27.1572ZM119.2 28.2051L116.942 30.1804C116.943 30.181 117.058 30.2536 117.144 30.9158C117.244 31.6904 117.25 32.7723 117.25 34.6553H120.25H123.25C123.25 32.9385 123.256 31.3953 123.094 30.1447C122.917 28.7817 122.507 27.4291 121.458 26.2297L119.2 28.2051ZM120.25 34.6553H117.25V117.155H120.25H123.25V34.6553H120.25ZM120.25 117.155H117.25C117.25 119.038 117.244 120.12 117.144 120.895C117.058 121.557 116.943 121.629 116.942 121.63L119.2 123.605L121.458 125.581C122.507 124.382 122.917 123.029 123.094 121.666C123.256 120.415 123.25 118.872 123.25 117.155H120.25ZM119.2 123.605L117.225 121.348C117.224 121.348 117.152 121.463 116.49 121.549C115.715 121.649 114.633 121.655 112.75 121.655V124.655V127.655C114.467 127.655 116.01 127.661 117.261 127.499C118.624 127.323 119.976 126.913 121.176 125.863L119.2 123.605ZM112.75 124.655V121.655H99.748V124.655V127.655H112.75V124.655ZM99.748 124.655L101.09 121.972L101.088 121.971L99.7461 124.654L98.4044 127.338L98.4064 127.339L99.748 124.655ZM99.7461 124.654H96.7461V124.655H99.7461H102.746V124.654H99.7461ZM99.7461 124.655V121.655H94.2461V124.655V127.655H99.7461V124.655ZM94.2461 124.655V121.655C92.8433 121.655 92.1113 121.649 91.607 121.584C91.2149 121.533 91.332 121.488 91.4911 121.627L89.5156 123.885L87.5401 126.142C88.5792 127.052 89.7416 127.392 90.8348 127.534C91.8156 127.661 93.0089 127.655 94.2461 127.655V124.655ZM89.5156 123.885L91.7737 121.91C91.9131 122.069 91.8681 122.187 91.8174 121.794C91.752 121.29 91.7461 120.558 91.7461 119.155H88.7461H85.7461C85.7461 120.392 85.7401 121.585 85.8671 122.565C86.0086 123.658 86.3484 124.821 87.2576 125.86L89.5156 123.885ZM88.7461 119.155H91.7461V64.1553H88.7461H85.7461V119.155H88.7461ZM88.7461 64.1553H91.7461C91.7461 62.918 91.7519 61.7248 91.6246 60.7439C91.4828 59.6508 91.1425 58.4884 90.2333 57.4493L87.9756 59.4248L85.7178 61.4003C85.5786 61.2412 85.6237 61.1241 85.6745 61.5161C85.74 62.0205 85.7461 62.7525 85.7461 64.1553H88.7461ZM87.9756 59.4248L89.9507 57.1668C88.9114 56.2576 87.7489 55.9178 86.6561 55.7763C85.6757 55.6493 84.4827 55.6553 83.2461 55.6553V58.6553V61.6553C84.6491 61.6553 85.3808 61.6612 85.8853 61.7265C86.2773 61.7773 86.1599 61.8223 86.0004 61.6829L87.9756 59.4248ZM83.2461 58.6553V55.6553H77.7461V58.6553V61.6553H83.2461V58.6553ZM77.7461 58.6553V55.6553C76.5095 55.6553 75.3162 55.6492 74.3357 55.7761C73.2428 55.9176 72.0798 56.2573 71.0401 57.1671L73.0156 59.4248L74.9911 61.6825C74.8314 61.8223 74.7137 61.7773 75.106 61.7265C75.6108 61.6611 76.3427 61.6553 77.7461 61.6553V58.6553ZM73.0156 59.4248L70.7579 57.4493C69.8482 58.489 69.5084 59.652 69.3669 60.7449C69.24 61.7254 69.2461 62.9186 69.2461 64.1553H72.2461H75.2461C75.2461 62.752 75.2519 62.02 75.3173 61.5152C75.3681 61.1229 75.4131 61.2406 75.2734 61.4003L73.0156 59.4248ZM72.2461 64.1553H69.2461V119.155H72.2461H75.2461V64.1553H72.2461ZM72.2461 119.155H69.2461C69.2461 120.558 69.24 121.29 69.1745 121.794C69.1237 122.185 69.0788 122.068 69.2179 121.909L71.4756 123.885L73.7333 125.86C74.6423 124.821 74.9827 123.659 75.1246 122.566C75.2519 121.585 75.2461 120.392 75.2461 119.155H72.2461ZM71.4756 123.885L69.5002 121.627C69.5202 121.609 69.5476 121.589 69.5801 121.569C69.6123 121.549 69.6379 121.537 69.651 121.532C69.6628 121.527 69.6559 121.531 69.6221 121.54C69.5874 121.548 69.5286 121.561 69.4377 121.574L69.8691 124.543L70.3006 127.512C71.3497 127.359 72.4571 127.012 73.451 126.143L71.4756 123.885ZM69.8691 124.543L67.0854 123.425C67.3724 122.71 67.8713 122.261 68.2839 122.012C68.6453 121.794 68.9607 121.713 69.0773 121.686C69.3012 121.634 69.4382 121.638 69.2961 121.644C69.072 121.654 68.6446 121.655 67.75 121.655V124.655V127.655C68.5606 127.655 69.1704 127.656 69.5683 127.638C69.7373 127.63 70.0816 127.613 70.4406 127.529C70.6218 127.487 72.0441 127.177 72.6529 125.661L69.8691 124.543ZM67.75 124.655V121.655H60.25V124.655V127.655H67.75V124.655ZM60.25 124.655V121.655C59.5134 121.655 59.1374 121.655 58.9385 121.649C58.7947 121.644 58.92 121.641 59.1183 121.676C59.1226 121.677 59.6675 121.753 60.2285 122.137C60.561 122.364 61.1498 122.872 61.4091 123.772C61.6826 124.72 61.427 125.525 61.1834 125.988L58.5283 124.592L55.8733 123.195C55.6255 123.666 55.3686 124.479 55.6441 125.434C55.9055 126.341 56.4995 126.855 56.8409 127.089C57.4197 127.485 57.9969 127.571 58.0505 127.581C58.3476 127.634 58.6403 127.642 58.7544 127.646C59.0712 127.656 59.5728 127.655 60.25 127.655V124.655ZM58.5283 124.592L58.7977 121.604C58.6409 121.59 58.5301 121.574 58.4528 121.559C58.3765 121.545 58.3432 121.534 58.3393 121.533C58.3379 121.532 58.361 121.54 58.3975 121.561C58.4349 121.582 58.4676 121.606 58.4911 121.627L56.5156 123.885L54.5401 126.142C55.7244 127.179 57.0653 127.472 58.259 127.58L58.5283 124.592ZM56.5156 123.885L58.7737 121.91C58.9131 122.069 58.8681 122.187 58.8174 121.794C58.752 121.29 58.7461 120.558 58.7461 119.155H55.7461H52.7461C52.7461 120.392 52.7401 121.585 52.8671 122.565C53.0086 123.658 53.3484 124.821 54.2576 125.86L56.5156 123.885ZM55.7461 119.155H58.7461V64.1553H55.7461H52.7461V119.155H55.7461ZM55.7461 64.1553H58.7461C58.7461 62.918 58.7519 61.7248 58.6246 60.7439C58.4828 59.6508 58.1425 58.4884 57.2333 57.4493L54.9756 59.4248L52.7179 61.4003C52.5786 61.2412 52.6237 61.1241 52.6745 61.5161C52.74 62.0205 52.7461 62.7525 52.7461 64.1553H55.7461ZM54.9756 59.4248L56.9507 57.1668C55.9114 56.2576 54.7489 55.9178 53.6561 55.7763C52.6757 55.6493 51.4827 55.6553 50.2461 55.6553V58.6553V61.6553C51.6491 61.6553 52.3808 61.6612 52.8853 61.7265C53.2773 61.7773 53.1598 61.8223 53.0004 61.6829L54.9756 59.4248ZM50.2461 58.6553V55.6553H44.7461V58.6553V61.6553H50.2461V58.6553ZM44.7461 58.6553V55.6553C43.5095 55.6553 42.3162 55.6492 41.3357 55.7761C40.2428 55.9176 39.0798 56.2573 38.0401 57.1671L40.0156 59.4248L41.9911 61.6825C41.8314 61.8223 41.7137 61.7773 42.106 61.7265C42.6108 61.6611 43.3427 61.6553 44.7461 61.6553V58.6553ZM40.0156 59.4248L37.7579 57.4493C36.8482 58.489 36.5084 59.652 36.3669 60.7449C36.24 61.7254 36.2461 62.9186 36.2461 64.1553H39.2461H42.2461C42.2461 62.7519 42.2519 62.02 42.3173 61.5152C42.3681 61.1229 42.4131 61.2406 42.2734 61.4003L40.0156 59.4248ZM39.2461 64.1553H36.2461V119.155H39.2461H42.2461V64.1553H39.2461ZM39.2461 119.155H36.2461C36.2461 120.558 36.24 121.29 36.1745 121.794C36.1237 122.185 36.0788 122.068 36.2179 121.909L38.4756 123.885L40.7333 125.86C41.6423 124.821 41.9827 123.659 42.1246 122.566C42.2519 121.585 42.2461 120.392 42.2461 119.155H39.2461ZM38.4756 123.885L36.5002 121.627C36.659 121.488 36.7761 121.533 36.3845 121.584C35.8805 121.649 35.1488 121.655 33.7461 121.655V124.655V127.655C34.9832 127.655 36.1763 127.661 37.157 127.534C38.2503 127.392 39.4122 127.051 40.451 126.143L38.4756 123.885ZM33.7461 124.655V121.655H15.25V124.655V127.655H33.7461V124.655ZM15.25 124.655V121.655C13.367 121.655 12.2851 121.649 11.5105 121.549C10.8484 121.463 10.7758 121.348 10.7751 121.348L8.7998 123.605L6.82446 125.863C8.02383 126.913 9.37643 127.323 10.7394 127.499C11.99 127.661 13.5332 127.655 15.25 127.655V124.655ZM8.7998 123.605L11.0575 121.63C11.0571 121.629 10.9421 121.557 10.8563 120.895C10.7559 120.12 10.75 119.038 10.75 117.155H7.75H4.75C4.75 118.872 4.74399 120.415 4.90603 121.666C5.08265 123.029 5.49258 124.382 6.54207 125.581L8.7998 123.605ZM7.75 117.155H10.75V34.6553H7.75H4.75V117.155H7.75ZM7.75 34.6553H10.75C10.75 32.7721 10.7559 31.6903 10.8563 30.9157C10.9421 30.2536 11.0571 30.1811 11.0576 30.1806L8.7998 28.2051L6.54204 26.2296C5.4926 27.429 5.08267 28.7816 4.90604 30.1447C4.744 31.3952 4.75 32.9385 4.75 34.6553H7.75ZM8.7998 28.2051L10.7753 30.4628C10.7848 30.4545 10.8429 30.3736 11.2806 30.2963C11.8173 30.2015 12.6083 30.1645 14.004 30.1572L13.9883 27.1572L13.9726 24.1573C11.5021 24.1702 8.86446 24.1622 6.82429 25.9474L8.7998 28.2051ZM13.9883 27.1572L13.9929 30.1572L16.5164 30.1533L16.5117 27.1533L16.5071 24.1533L13.9836 24.1572L13.9883 27.1572ZM16.5117 27.1533L16.5274 30.1533C18.9977 30.1403 21.6356 30.1483 23.6757 28.3632L21.7002 26.1055L19.7247 23.8477C19.7153 23.8559 19.6572 23.9369 19.2194 24.0142C18.6826 24.109 17.8915 24.1461 16.496 24.1534L16.5117 27.1533ZM21.7002 26.1055L23.9579 28.081C25.743 26.0409 25.7351 23.4029 25.748 20.9327L22.748 20.917L19.7481 20.9013C19.7408 22.2968 19.7038 23.0879 19.609 23.6246C19.5316 24.0625 19.4507 24.1206 19.4425 24.13L21.7002 26.1055ZM22.748 20.917L25.748 20.9216L25.7519 18.3982L22.752 18.3936L19.752 18.3889L19.7481 20.9123L22.748 20.917ZM22.752 18.3936L25.7519 18.4092C25.7592 17.0136 25.7962 16.2225 25.891 15.6859C25.9683 15.2482 26.0493 15.1901 26.0576 15.1805L23.7998 13.2051L21.542 11.2296C19.757 13.2698 19.7649 15.9073 19.752 18.3779L22.752 18.3936ZM23.7998 13.2051L25.7753 15.4628C25.7759 15.4623 25.8484 15.3473 26.5104 15.2616C27.285 15.1612 28.3668 15.1553 30.25 15.1553V12.1553V9.15527C28.5332 9.15527 26.9899 9.14926 25.7394 9.3113C24.3763 9.48792 23.0237 9.89787 21.8243 10.9474L23.7998 13.2051ZM30.25 12.1553V15.1553H52.75V12.1553V9.15527H30.25V12.1553Z" fill="white" mask="url(#path-1-outside-1_1_2)"/>
<path d="M105.25 19.655C105.25 23.255 105.25 24.905 106.3 26.105C107.5 27.155 109.15 27.155 112.75 27.155C116.35 27.155 122 27.155 123.2 28.205C124.25 29.405 124.25 31.055 124.25 34.655V117.155C124.25 120.755 124.25 122.405 123.2 123.605C122 124.655 116.35 124.655 112.75 124.655H105.25C101.65 124.655 100 124.655 98.8 123.605C97.75 122.405 97.75 120.755 97.75 117.155V42.155C97.75 38.555 97.75 36.905 96.7 35.705C95.5 34.655 93.85 34.655 90.25 34.655H82.75C79.15 34.655 73.5 34.655 72.3 35.705C71.25 36.905 71.25 38.555 71.25 42.155V117.155C71.25 120.755 71.25 122.405 70.2 123.605C69 124.655 71.35 124.655 67.75 124.655H60.25C56.65 124.655 60 124.655 58.8 123.605C57.75 122.405 57.75 120.755 57.75 117.155V42.155C57.75 38.555 57.75 36.905 56.7 35.705C55.5 34.655 48.85 34.655 45.25 34.655H37.75C34.15 34.655 32.5 34.655 31.3 35.705C30.25 36.905 30.25 38.555 30.25 42.155V117.155C30.25 120.755 30.25 122.405 29.2 123.605C28 124.655 26.35 124.655 22.75 124.655H15.25C11.65 124.655 6 124.655 4.8 123.605C3.75 122.405 3.75 120.755 3.75 117.155V34.655C3.75 31.055 3.75 29.405 4.8 28.205C6 27.155 11.65 27.155 15.25 27.155C18.85 27.155 20.5 27.155 21.7 26.105C22.75 24.905 22.75 23.255 22.75 19.655C22.75 16.055 22.75 14.405 23.8 13.205C25 12.155 26.65 12.155 30.25 12.155H52.75C56.35 12.155 58 12.155 59.2 13.205C60.25 14.405 60.25 16.055 60.25 19.655V23.405C60.25 25.505 61.9 27.155 64 27.155C66.1 27.155 67.75 25.505 67.75 23.405V19.655C67.75 16.055 67.75 14.405 68.8 13.205C70 12.155 71.65 12.155 75.25 12.155H97.75C101.35 12.155 103 12.155 104.2 13.205C105.25 14.405 105.25 16.055 105.25 19.655Z" fill="#E57200"/>
<path d="M99.75 33.655C99.75 36.775 99.75 38.205 100.66 39.245C101.7 40.155 103.13 40.155 106.25 40.155C109.37 40.155 112.8 40.155 113.84 41.065C114.75 42.105 114.75 43.535 114.75 46.655V118.155C114.75 121.275 114.75 122.705 113.84 123.745C112.8 124.655 109.37 124.655 106.25 124.655H99.75C96.63 124.655 95.2 124.655 94.16 123.745C93.25 122.705 93.25 121.275 93.25 118.155V53.155C93.25 50.035 93.25 48.605 92.34 47.565C91.3 46.655 89.87 46.655 86.75 46.655H80.25C77.13 46.655 73.7 46.655 72.66 47.565C71.75 48.605 71.75 50.035 71.75 53.155V118.155C71.75 121.275 71.75 122.705 70.84 123.745C69.8 124.655 70.37 124.655 67.25 124.655H60.75C57.63 124.655 59.2 124.655 58.16 123.745C57.25 122.705 57.25 121.275 57.25 118.155V53.155C57.25 50.035 57.25 48.605 56.34 47.565C55.3 46.655 50.87 46.655 47.75 46.655H41.25C38.13 46.655 36.7 46.655 35.66 47.565C34.75 48.605 34.75 50.035 34.75 53.155V118.155C34.75 121.275 34.75 122.705 33.84 123.745C32.8 124.655 31.37 124.655 28.25 124.655H21.75C18.63 124.655 15.2 124.655 14.16 123.745C13.25 122.705 13.25 121.275 13.25 118.155V46.655C13.25 43.535 13.25 42.105 14.16 41.065C15.2 40.155 18.63 40.155 21.75 40.155C24.87 40.155 26.3 40.155 27.34 39.245C28.25 38.205 28.25 36.775 28.25 33.655C28.25 30.535 28.25 29.105 29.16 28.065C30.2 27.155 31.63 27.155 34.75 27.155H54.25C57.37 27.155 58.8 27.155 59.84 28.065C60.75 29.105 60.75 30.535 60.75 33.655V36.905C60.75 38.725 62.18 40.155 64 40.155C65.82 40.155 67.25 38.725 67.25 36.905V33.655C67.25 30.535 67.25 29.105 68.16 28.065C69.2 27.155 70.63 27.155 73.75 27.155H93.25C96.37 27.155 97.8 27.155 98.84 28.065C99.75 29.105 99.75 30.535 99.75 33.655Z" fill="#FFA347"/>
<path d="M94.25 47.655C94.25 50.295 94.25 51.505 95.02 52.385C95.9 53.155 97.11 53.155 99.75 53.155C102.39 53.155 103.6 53.155 104.48 53.925C105.25 54.805 105.25 56.015 105.25 58.655V119.155C105.25 121.795 105.25 123.005 104.48 123.885C103.6 124.655 102.39 124.655 99.75 124.655H94.25C91.61 124.655 90.4 124.655 89.52 123.885C88.75 123.005 88.75 121.795 88.75 119.155V64.155C88.75 61.515 88.75 60.305 87.98 59.425C87.1 58.655 85.89 58.655 83.25 58.655H77.75C75.11 58.655 73.9 58.655 73.02 59.425C72.25 60.305 72.25 61.515 72.25 64.155V119.155C72.25 121.795 72.25 123.005 71.48 123.885C70.6 124.655 69.39 124.655 66.75 124.655H61.25C58.61 124.655 57.4 124.655 56.52 123.885C55.75 123.005 55.75 121.795 55.75 119.155V64.155C55.75 61.515 55.75 60.305 54.98 59.425C54.1 58.655 52.89 58.655 50.25 58.655H44.75C42.11 58.655 40.9 58.655 40.02 59.425C39.25 60.305 39.25 61.515 39.25 64.155V119.155C39.25 121.795 39.25 123.005 38.48 123.885C37.6 124.655 36.39 124.655 33.75 124.655H28.25C25.61 124.655 24.4 124.655 23.52 123.885C22.75 123.005 22.75 121.795 22.75 119.155V58.655C22.75 56.015 22.75 54.805 23.52 53.925C24.4 53.155 25.61 53.155 28.25 53.155C30.89 53.155 32.1 53.155 32.98 52.385C33.75 51.505 33.75 50.295 33.75 47.655C33.75 45.015 33.75 43.805 34.52 42.925C35.4 42.155 36.61 42.155 39.25 42.155H55.75C58.39 42.155 59.6 42.155 60.48 42.925C61.25 43.805 61.25 45.015 61.25 47.655V50.405C61.25 51.945 62.46 53.155 64 53.155C65.54 53.155 66.75 51.945 66.75 50.405V47.655C66.75 45.015 66.75 43.805 67.52 42.925C68.4 42.155 69.61 42.155 72.25 42.155H88.75C91.39 42.155 92.6 42.155 93.48 42.925C94.25 43.805 94.25 45.015 94.25 47.655Z" fill="#000638"/>
</svg>
